<svg xmlns="http://www.w3.org/2000/svg" id="Layer_1" x="0" y="0" version="1.1" viewBox="0 0 128 128" xml:space="preserve" width="50" height="50"><path fill="#3f4a54" d="M96.5,122.4c-3.7-6-7.1-12.2-10.1-18.6c1.2-0.4,2-1.5,2-2.8c0-1.7-1.3-3-3-3h-1.7c-3-6.9-5.5-14-7.6-21.1 c1.2-0.4,2.1-1.5,2.1-2.9c0-1.7-1.3-3-3-3h-0.7c-2.9-11.2-4.7-22.7-5.5-34.3l-1.2-19.8c1.4-0.3,2.4-1.5,2.4-2.9 c0-1.6-1.2-2.9-2.8-3L67,3.8C66.9,2.2,65.5,1,63.9,1C62.3,1.1,61,2.4,61,4v7h-0.2c-1.7,0-3,1.3-3,3s1.3,3,3,3h0.6 c0.1,0.3,0.3,0.6,0.5,0.8l1.2,19.3c0.7,11.4,2.5,22.8,5.3,33.9h-8.6c1.2-4.7,2.1-9.4,3-14.2c0.3-1.6-0.8-3.2-2.5-3.5 c-1.6-0.3-3.2,0.8-3.5,2.5c-0.9,5.1-2,10.2-3.2,15.2h-0.8c-1.7,0-3,1.3-3,3c0,1.4,0.9,2.5,2.1,2.9c-2.1,7.2-4.7,14.3-7.6,21.1h-1.7 c-1.7,0-3,1.3-3,3c0,1.3,0.9,2.4,2.1,2.8c-3,6.4-6.4,12.6-10.2,18.6c-0.9,1.4-0.5,3.3,1,4.1c0.5,0.3,1,0.5,1.6,0.5 c1,0,2-0.5,2.5-1.4c4.4-7,8.2-14.2,11.6-21.6h31.7c3.4,7.4,7.3,14.6,11.6,21.6C92,126.5,93,127,94,127c0.5,0,1.1-0.1,1.6-0.5 C97,125.7,97.4,123.8,96.5,122.4z M50.8,98c2.9-6.8,5.3-13.9,7.3-21h11.8c2,7.1,4.5,14.1,7.3,21H50.8z"/><path fill="#3f4a54" d="M64,109.6c-8.9,0-16.6,5.1-20.1,13.2c-0.7,1.5,0,3.3,1.6,3.9c1.5,0.7,3.3,0,3.9-1.6c2.6-5.9,8.1-9.6,14.6-9.6 c6.4,0,12,3.7,14.6,9.6c0.5,1.1,1.6,1.8,2.8,1.8c0.4,0,0.8-0.1,1.2-0.2c1.5-0.7,2.2-2.4,1.6-3.9C80.6,114.7,72.9,109.6,64,109.6z"/></svg>