<svg id="Layer_1_1_" enable-background="new 0 0 64 64" height="512" viewBox="0 0 64 64" width="512" xmlns="http://www.w3.org/2000/svg"><path d="m46 14 3 6-1 2v6h-4v-6l-1-2z" fill="#db535b"/><path d="m39 17v5l-3 3v3h-4-4v-3l-3-3v-5l4-3v6h6v-6z" fill="#db535b"/><path d="m20 14 1 6-1 2v6h-4v-6l-1-2 1-6z" fill="#db535b"/><path d="m57 61h-50c-2.209 0-4-1.791-4-4v-29h58v29c0 2.209-1.791 4-4 4z" fill="#71d2df"/><g fill="#f6db40"><circle cx="55" cy="46" r="2"/><circle cx="48" cy="40" r="2"/><circle cx="40" cy="47" r="2"/><path d="m32 42c1.1 0 2 .9 2 2s-.9 2-2 2c-.34 0-.67-.09-.95-.24-.62-.34-1.05-1-1.05-1.76 0-1.1.9-2 2-2z"/><path d="m24 46c1.1 0 2 .9 2 2s-.9 2-2 2c-.34 0-.67-.09-.95-.24-.62-.34-1.05-1-1.05-1.76 0-1.1.9-2 2-2z"/><circle cx="16" cy="40" r="2"/><circle cx="9" cy="46" r="2"/></g><path d="m53 3h6v25h-6z" fill="#6599ed"/><path d="m11 5h42v4h-42z" fill="#8360f4"/><path d="m5 3h6v25h-6z" fill="#6599ed"/><path d="m61 27h-1v-24c0-.553-.447-1-1-1h-6c-.553 0-1 .447-1 1v1h-40v-1c0-.553-.447-1-1-1h-6c-.553 0-1 .447-1 1v24h-1c-.553 0-1 .447-1 1v29c0 2.757 2.243 5 5 5h50c2.757 0 5-2.243 5-5v-29c0-.553-.447-1-1-1zm-7-23h4v23h-4zm-5 23v-4.764l.895-1.789c.141-.281.141-.613 0-.895l-3-6c-.34-.678-1.449-.678-1.789 0l-3 6c-.141.281-.141.613 0 .895l.894 1.789v4.764h-6v-1.586l2.707-2.707c.188-.187.293-.441.293-.707v-5c0-.314-.148-.611-.4-.8l-4-3c-.303-.229-.708-.264-1.047-.095-.339.17-.553.516-.553.895v5h-4v-5c0-.379-.214-.725-.553-.895-.338-.168-.745-.133-1.047.095l-4 3c-.251.189-.4.486-.4.8v5c0 .266.105.52.293.707l2.707 2.707v1.586h-6v-4.764l.895-1.789c.095-.189.127-.403.092-.611l-1-6c-.081-.482-.498-.836-.987-.836h-4c-.489 0-.906.354-.986.836l-1 6c-.035.208-.003.422.092.611l.894 1.789v4.764h-3v-17h40v17zm0 13c0 .552-.448 1-1 1s-1-.448-1-1 .448-1 1-1 1 .448 1 1zm-8 7c0 .552-.448 1-1 1s-1-.448-1-1 .448-1 1-1 1 .448 1 1zm-1-9.414-3-3v-5.586h5v6.586zm-7 6.414c0 .552-.448 1-1 1s-1-.448-1-1 .448-1 1-1 1 .448 1 1zm-2-7.414-3-3v-4.586h3zm-2-9.586v-2c0-.266-.105-.52-.293-.707l-2.707-2.707v-4.086l2-1.5v4c0 .553.447 1 1 1h6c.553 0 1-.447 1-1v-4l2 1.5v4.086l-2.707 2.707c-.187.187-.293.441-.293.707v2zm15.895-5.447-.777-1.553 1.882-3.764 1.882 3.764-.776 1.553c-.07.138-.106.292-.106.447v5h-2v-5c0-.155-.036-.309-.105-.447zm-27.895 18.447c0 .552-.448 1-1 1s-1-.448-1-1 .448-1 1-1 1 .448 1 1zm-.105-18.447-.854-1.709.806-4.844h2.307l.807 4.844-.854 1.709c-.071.138-.107.292-.107.447v5h-2v-5c0-.155-.036-.309-.105-.447zm35.105-15.553v2h-40v-2zm-46-2h4v23h-4zm54 53c0 1.654-1.346 3-3 3h-50c-1.654 0-3-1.346-3-3v-28h6v4.586l-1.707 1.707c-.187.187-.293.441-.293.707v7.184c-1.161.414-2 1.514-2 2.816 0 1.654 1.346 3 3 3s3-1.346 3-3c0-1.302-.839-2.402-2-2.816v-6.77l1.707-1.707c.188-.187.293-.441.293-.707v-5h3v8.184c-1.161.414-2 1.514-2 2.816 0 1.654 1.346 3 3 3s3-1.346 3-3c0-1.302-.839-2.402-2-2.816v-8.184h3v7c0 .266.105.52.293.707l2.707 2.707v5.77c-1.161.414-2 1.514-2 2.816 0 1.654 1.346 3 3 3s3-1.346 3-3c0-1.302-.839-2.402-2-2.816v-6.184c0-.266-.105-.52-.293-.707l-2.707-2.707v-6.586h4v5c0 .266.105.52.293.707l4.707 4.707v1.77c-1.161.414-2 1.514-2 2.816 0 1.654 1.346 3 3 3s3-1.346 3-3c0-1.302-.839-2.402-2-2.816v-12.184h2v6c0 .266.105.52.293.707l3.707 3.707v4.77c-1.161.414-2 1.514-2 2.816 0 1.654 1.346 3 3 3s3-1.346 3-3c0-1.302-.839-2.402-2-2.816v-4.77l2.707-2.707c.188-.187.293-.441.293-.707v-7h3v8.184c-1.161.414-2 1.514-2 2.816 0 1.654 1.346 3 3 3s3-1.346 3-3c0-1.302-.839-2.402-2-2.816v-8.184h3v5c0 .266.105.52.293.707l1.707 1.707v6.77c-1.161.414-2 1.514-2 2.816 0 1.654 1.346 3 3 3s3-1.346 3-3c0-1.302-.839-2.402-2-2.816v-7.184c0-.266-.105-.52-.293-.707l-1.707-1.707v-4.586h6zm-50-11c0 .552-.448 1-1 1s-1-.448-1-1 .448-1 1-1 1 .448 1 1zm15 2c0 .552-.448 1-1 1s-1-.448-1-1 .448-1 1-1 1 .448 1 1zm31-2c0 .552-.448 1-1 1s-1-.448-1-1 .448-1 1-1 1 .448 1 1z" fill="#1a1a1a"/><path d="m55 51h-2v5h-2v-9h-2v9h-2v-11h-2v11h-2v-4h-2v4h-2v-4h-2v4h-2v-7h-2v7h-2v-8h-2v8h-2v-4h-2v4h-2v-4h-2v4h-2v-7h-2v7h-2v-9h-2v9h-2v-4h-2v4h-2v2h50v-2h-2z" fill="#1a1a1a"/></svg>